<svg xmlns="http://www.w3.org/2000/svg" width="24" height="24" viewBox="0 0 24 24" fill="none">
<path fill-rule="evenodd" clip-rule="evenodd" d="M16 12C16 13.0609 15.5786 14.0783 14.8284 14.8284C14.0783 15.5786 13.0609 16 12 16C10.9391 16 9.92172 15.5786 9.17157 14.8284C8.42143 14.0783 8 13.0609 8 12C8 10.9391 8.42143 9.92172 9.17157 9.17157C9.92172 8.42143 10.9391 8 12 8C13.0609 8 14.0783 8.42143 14.8284 9.17157C15.5786 9.92172 16 10.9391 16 12ZM14 12C14 12.5304 13.7893 13.0391 13.4142 13.4142C13.0391 13.7893 12.5304 14 12 14C11.4696 14 10.9609 13.7893 10.5858 13.4142C10.2107 13.0391 10 12.5304 10 12C10 11.4696 10.2107 10.9609 10.5858 10.5858C10.9609 10.2107 11.4696 10 12 10C12.5304 10 13.0391 10.2107 13.4142 10.5858C13.7893 10.9609 14 11.4696 14 12Z" fill="black"/>
<path fill-rule="evenodd" clip-rule="evenodd" d="M11.9999 3C17.5909 3 22.2899 6.824 23.6219 12C22.2899 17.176 17.5919 21 11.9999 21C6.40793 21 1.70993 17.176 0.37793 12C1.70993 6.824 6.40793 3 11.9999 3ZM11.9999 19C7.52393 19 3.73093 16.058 2.45693 12C3.73093 7.942 7.52393 5 11.9999 5C16.4759 5 20.2689 7.942 21.5429 12C20.2689 16.058 16.4759 19 11.9999 19Z" fill="black"/>
</svg>